{
  "accessors": [
    {
      "bufferView": 2,
      "componentType": 5126,
      "count": 19174,
      "max": [
        313.784423828125,
        375.34347534179688,
        68.51654052734375
      ],
      "min": [
        -84.151702880859375,
        26.502750396728516,
        -33.706222534179688
      ],
      "type": "VEC3"
    },
    {
      "bufferView": 2,
      "byteOffset": 230088,
      "componentType": 5126,
      "count": 19174,
      "max": [
        0.99976223707199097,
        0.9998021125793457,
        0.99896782636642456
      ],
      "min": [
        -0.99465876817703247,
        -0.97635602951049805,
        -0.99996191263198853
      ],
      "type": "VEC3"
    },
    {
      "bufferView": 1,
      "componentType": 5126,
      "count": 19174,
      "max": [
        0.84869861602783203,
        0.9999920129776001
      ],
      "min": [
        6.6041946411132812e-05,
        3.0137598514556885e-05
      ],
      "type": "VEC2"
    },
    {
      "bufferView": 0,
      "componentType": 5125,
      "count": 110394,
      "max": [
        19173
      ],
      "min": [
        0
      ],
      "type": "SCALAR"
    },
    {
      "bufferView": 2,
      "byteOffset": 460176,
      "componentType": 5126,
      "count": 14090,
      "max": [
        300.50772094726562,
        387.65493774414062,
        70.22686767578125
      ],
      "min": [
        -92.998161315917969,
        22.21504020690918,
        -34.996757507324219
      ],
      "type": "VEC3"
    },
    {
      "bufferView": 2,
      "byteOffset": 629256,
      "componentType": 5126,
      "count": 14090,
      "max": [
        0.99833148717880249,
        0.99843692779541016,
        0.9927564263343811
      ],
      "min": [
        -0.88241219520568848,
        -0.86686903238296509,
        -0.99999517202377319
      ],
      "type": "VEC3"
    },
    {
      "bufferView": 1,
      "byteOffset": 153392,
      "componentType": 5126,
      "count": 14090,
      "max": [
        0.99988877773284912,
        0.89233958721160889
      ],
      "min": [
        6.1526894569396973e-05,
        7.9140067100524902e-05
      ],
      "type": "VEC2"
    },
    {
      "bufferView": 0,
      "byteOffset": 441576,
      "componentType": 5125,
      "count": 80634,
      "max": [
        14089
      ],
      "min": [
        0
      ],
      "type": "SCALAR"
    },
    {
      "bufferView": 2,
      "byteOffset": 798336,
      "componentType": 5126,
      "count": 25224,
      "max": [
        291.52334594726562,
        361.53073120117188,
        70.57012939453125
      ],
      "min": [
        21.795242309570312,
        29.319087982177734,
        -33.797061920166016
      ],
      "type": "VEC3"
    },
    {
      "bufferView": 2,
      "byteOffset": 1101024,
      "componentType": 5126,
      "count": 25224,
      "max": [
        0.99562817811965942,
        0.99970948696136475,
        0.98880189657211304
      ],
      "min": [
        -0.99975419044494629,
        -0.99593847990036011,
        -0.99999213218688965
      ],
      "type": "VEC3"
    },
    {
      "bufferView": 1,
      "byteOffset": 266112,
      "componentType": 5126,
      "count": 25224,
      "max": [
        0.99365878105163574,
        0.91045022010803223
      ],
      "min": [
        0.10608969628810883,
        0.00086054205894470215
      ],
      "type": "VEC2"
    },
    {
      "bufferView": 0,
      "byteOffset": 764112,
      "componentType": 5125,
      "count": 147237,
      "max": [
        25223
      ],
      "min": [
        0
      ],
      "type": "SCALAR"
    }
  ],
  "asset": {
    "extras": {
      "author": "Sara Carena (https://sketchfab.com/saracarena1)",
      "license": "CC-BY-NC-4.0 (http://creativecommons.org/licenses/by-nc/4.0/)",
      "source": "https://sketchfab.com/3d-models/cala-rossa-low-res-test-60f526f4fde34576af5fead812879b4b",
      "title": "Cala Rossa, low-res test"
    },
    "generator": "Sketchfab-9.40.0",
    "version": "2.0"
  },
  "bufferViews": [
    {
      "buffer": 0,
      "byteLength": 1353060,
      "byteOffset": 0,
      "name": "floatBufferViews",
      "target": 34963
    },
    {
      "buffer": 0,
      "byteLength": 467904,
      "byteOffset": 1353060,
      "byteStride": 8,
      "name": "floatBufferViews",
      "target": 34962
    },
    {
      "buffer": 0,
      "byteLength": 1403712,
      "byteOffset": 1820964,
      "byteStride": 12,
      "name": "floatBufferViews",
      "target": 34962
    }
  ],
  "buffers": [
    {
      "byteLength": 3224676,
      "uri": "scene.bin"
    }
  ],
  "extensionsUsed": [
    "KHR_materials_unlit"
  ],
  "images": [
    {
      "uri": "textures/material2_baseColor.jpeg"
    },
    {
      "uri": "textures/material0_baseColor.jpeg"
    },
    {
      "uri": "textures/material1_baseColor.jpeg"
    }
  ],
  "materials": [
    {
      "doubleSided": true,
      "emissiveFactor": [
        0,
        0,
        0
      ],
      "extensions": {
        "KHR_materials_unlit": {}
      },
      "name": "material2",
      "pbrMetallicRoughness": {
        "baseColorFactor": [
          1,
          1,
          1,
          1
        ],
        "baseColorTexture": {
          "index": 0,
          "texCoord": 0
        },
        "metallicFactor": 0,
        "roughnessFactor": 1
      }
    },
    {
      "doubleSided": true,
      "emissiveFactor": [
        0,
        0,
        0
      ],
      "extensions": {
        "KHR_materials_unlit": {}
      },
      "name": "material0",
      "pbrMetallicRoughness": {
        "baseColorFactor": [
          1,
          1,
          1,
          1
        ],
        "baseColorTexture": {
          "index": 1,
          "texCoord": 0
        },
        "metallicFactor": 0,
        "roughnessFactor": 1
      }
    },
    {
      "doubleSided": true,
      "emissiveFactor": [
        0,
        0,
        0
      ],
      "extensions": {
        "KHR_materials_unlit": {}
      },
      "name": "material1",
      "pbrMetallicRoughness": {
        "baseColorFactor": [
          1,
          1,
          1,
          1
        ],
        "baseColorTexture": {
          "index": 2,
          "texCoord": 0
        },
        "metallicFactor": 0,
        "roughnessFactor": 1
      }
    }
  ],
  "meshes": [
    {
      "name": "Model_material2_0",
      "primitives": [
        {
          "attributes": {
            "NORMAL": 1,
            "POSITION": 0,
            "TEXCOORD_0": 2
          },
          "indices": 3,
          "material": 0,
          "mode": 4
        }
      ]
    },
    {
      "name": "Model_material0_0",
      "primitives": [
        {
          "attributes": {
            "NORMAL": 5,
            "POSITION": 4,
            "TEXCOORD_0": 6
          },
          "indices": 7,
          "material": 1,
          "mode": 4
        }
      ]
    },
    {
      "name": "Model_material1_0",
      "primitives": [
        {
          "attributes": {
            "NORMAL": 9,
            "POSITION": 8,
            "TEXCOORD_0": 10
          },
          "indices": 11,
          "material": 2,
          "mode": 4
        }
      ]
    }
  ],
  "nodes": [
    {
      "children": [
        1
      ],
      "name": "RootNode (gltf orientation matrix)",
      "rotation": [
        -0.70710678118654746,
        -0,
        -0,
        0.70710678118654757
      ]
    },
    {
      "children": [
        2
      ],
      "name": "RootNode (model correction matrix)"
    },
    {
      "children": [
        3
      ],
      "matrix": [
        1,
        0,
        0,
        0,
        0,
        -1,
        0,
        0,
        0,
        0,
        -1,
        0,
        0,
        0,
        0,
        1
      ],
      "name": "model.fbx"
    },
    {
      "children": [
        4
      ],
      "name": "RootNode"
    },
    {
      "children": [
        5,
        6,
        7
      ],
      "name": "Model"
    },
    {
      "mesh": 0,
      "name": "Model_material2_0"
    },
    {
      "mesh": 1,
      "name": "Model_material0_0"
    },
    {
      "mesh": 2,
      "name": "Model_material1_0"
    }
  ],
  "samplers": [
    {
      "magFilter": 9729,
      "minFilter": 9987,
      "wrapS": 10497,
      "wrapT": 10497
    }
  ],
  "scene": 0,
  "scenes": [
    {
      "name": "OSG_Scene",
      "nodes": [
        0
      ]
    }
  ],
  "textures": [
    {
      "sampler": 0,
      "source": 0
    },
    {
      "sampler": 0,
      "source": 1
    },
    {
      "sampler": 0,
      "source": 2
    }
  ]
}

